<svg viewBox="0 0 480 375" fill="none" xmlns="http://www.w3.org/2000/svg">
  <path d="M276.32,124.09l-37.64,59.32h84.55c4,0,7.24,3.24,7.24,7.24v78.59c0,4-3.24,7.24-7.24,7.24h-143.61l-60.53,95.4c-1.33,2.09-3.63,3.36-6.11,3.36H7.25c-5.71,0-9.17-6.3-6.11-11.11l55.61-87.65,59.06-93.07,37.64-59.32L230.06,3.36c1.33-2.09,3.63-3.36,6.11-3.36h105.73c5.71,0,9.17,6.3,6.11,11.11l-17.54,27.65-54.15,85.33Z" fill="#1A1A1A"/>
  <path d="M476.65,7.24v360.77c0,4-3.24,7.24-7.24,7.24h-96.06c-4,0-7.24-3.24-7.24-7.24V124.09h-28.41c-4,0-7.24-3.24-7.24-7.24v-26.47c0-1.37.39-2.72,1.13-3.88l34.52-54.4,18.24-28.75c1.33-2.09,3.63-3.36,6.11-3.36h78.94c4,0,7.24,3.24,7.24,7.24Z" fill="#FF6A13"/>
</svg>
